<svg width="14" height="18" viewBox="0 0 14 18" fill="none" xmlns="http://www.w3.org/2000/svg">
<path d="M11.8867 0.5625C12.7601 0.5625 13.4688 1.27079 13.4688 2.14453V15.8555C13.4688 16.7289 12.7601 17.4375 11.8867 17.4375H8.72266V14.8008C8.72266 13.9274 8.01404 13.2188 7.14062 13.2188C6.26721 13.2188 5.55859 13.9274 5.55859 14.8008V17.4375H2.39453C1.52079 17.4375 0.8125 16.7289 0.8125 15.8555V2.14453C0.8125 1.27079 1.52079 0.5625 2.39453 0.5625H11.8867ZM2.92188 9.52734C2.92188 9.81738 3.15786 10.0547 3.44922 10.0547H4.50391C4.79395 10.0547 5.03125 9.81738 5.03125 9.52734V8.47266C5.03125 8.18262 4.79395 7.94531 4.50391 7.94531H3.44922C3.15786 7.94531 2.92188 8.18262 2.92188 8.47266V9.52734ZM6.61328 7.94531C6.32324 7.94531 6.08594 8.18262 6.08594 8.47266V9.52734C6.08594 9.81738 6.32324 10.0547 6.61328 10.0547H7.66797C7.95801 10.0547 8.19531 9.81738 8.19531 9.52734V8.47266C8.19531 8.18262 7.95801 7.94531 7.66797 7.94531H6.61328ZM9.25 9.52734C9.25 9.81738 9.4873 10.0547 9.77734 10.0547H10.832C11.1221 10.0547 11.3594 9.81738 11.3594 9.52734V8.47266C11.3594 8.18262 11.1221 7.94531 10.832 7.94531H9.77734C9.4873 7.94531 9.25 8.18262 9.25 8.47266V9.52734ZM3.44922 3.72656C3.15786 3.72656 2.92188 3.96387 2.92188 4.25391V5.30859C2.92188 5.59863 3.15786 5.83594 3.44922 5.83594H4.50391C4.79395 5.83594 5.03125 5.59863 5.03125 5.30859V4.25391C5.03125 3.96387 4.79395 3.72656 4.50391 3.72656H3.44922ZM6.08594 5.30859C6.08594 5.59863 6.32324 5.83594 6.61328 5.83594H7.66797C7.95801 5.83594 8.19531 5.59863 8.19531 5.30859V4.25391C8.19531 3.96387 7.95801 3.72656 7.66797 3.72656H6.61328C6.32324 3.72656 6.08594 3.96387 6.08594 4.25391V5.30859ZM9.77734 3.72656C9.4873 3.72656 9.25 3.96387 9.25 4.25391V5.30859C9.25 5.59863 9.4873 5.83594 9.77734 5.83594H10.832C11.1221 5.83594 11.3594 5.59863 11.3594 5.30859V4.25391C11.3594 3.96387 11.1221 3.72656 10.832 3.72656H9.77734Z" fill="#3A536B"/>
</svg>
