<svg width="18" height="14" viewBox="0 0 18 14" fill="none" xmlns="http://www.w3.org/2000/svg">
<path d="M6.46875 7C8.33291 7 9.84375 5.4889 9.84375 3.625C9.84375 1.7611 8.33291 0.25 6.46875 0.25C4.60459 0.25 3.09375 1.7611 3.09375 3.625C3.09375 5.4889 4.60459 7 6.46875 7ZM7.80557 8.26562H5.13193C2.6078 8.26562 0.5625 10.3117 0.5625 12.8351C0.5625 13.3413 0.971719 13.75 1.47639 13.75H11.4601C11.9663 13.75 12.375 13.3413 12.375 12.8351C12.375 10.3117 10.3289 8.26562 7.80557 8.26562ZM13.195 8.6875H11.2478C12.4594 9.68154 13.2188 11.1687 13.2188 12.8351C13.2188 13.1726 13.1186 13.4837 12.9551 13.75H16.5938C17.0604 13.75 17.4375 13.3703 17.4375 12.8825C17.4375 10.5754 15.5496 8.6875 13.195 8.6875ZM11.9531 7C13.5853 7 14.9062 5.679 14.9062 4.04688C14.9062 2.41475 13.5853 1.09375 11.9531 1.09375C11.291 1.09375 10.6864 1.31932 10.1939 1.68728C10.4977 2.27052 10.6875 2.92363 10.6875 3.625C10.6875 4.56156 10.3729 5.42166 9.85456 6.12224C10.3896 6.6625 11.1305 7 11.9531 7Z" fill="#3A536B"/>
</svg>
